#!OML:ASF F:\VICON\USERDATA\INSTALL\rory3\rory3.ASF
:FULLY-SPECIFIED
:DEGREES
116
root 1.28943 16.9982 26.2702 -0.493416 5.34149 2.75056
lowerback 19.3806 1.66742 -2.06911
upperback 0.258276 1.64032 -0.946188
thorax -10.6514 0.853019 -0.322653
lowerneck -21.437 -6.06234 -1.53083
upperneck 7.12918 -8.4693 6.23934
head 5.93103 -3.63799 1.29722
rclavicle -9.54788e-015 -8.44835e-016
rhumerus -46.1609 8.37669 -100.942
rradius 101.729
rwrist -12.2782
rhand -11.9339 35.8061
rfingers 7.12502
rthumb 14.1207 6.30595
lclavicle -9.54788e-015 -8.44835e-016
lhumerus -43.0441 -18.2445 97.0208
lradius 115.871
lwrist 28.4559
lhand -27.4759 -0.639923
lfingers 7.12502
lthumb -0.879718 29.338
rfemur -20.9611 -4.5519 16.8878
rtibia 112.056
rfoot 9.65549 -6.12287
rtoes 23.7593
lfemur -19.5131 0.363232 -26.7738
ltibia 48.5831
lfoot -24.0846 -1.34889
ltoes -7.47678
117
root 1.30977 16.9975 26.7103 0.0168655 4.79285 2.15299
lowerback 19.1868 1.61645 -1.4867
upperback 0.164431 1.7292 -0.736436
thorax -10.6368 0.871342 -0.444926
lowerneck -21.5531 -5.82863 -1.77806
upperneck 6.88406 -8.09124 6.38362
head 5.87277 -3.45435 1.42664
rclavicle 1.50331e-015 5.26779e-015
rhumerus -47.5071 7.99367 -100.797
rradius 101.859
rwrist -12.6638
rhand -11.7319 35.745
rfingers 7.12502
rthumb 14.3153 6.25846
lclavicle 1.50331e-015 5.26779e-015
lhumerus -40.6746 -18.9447 96.5887
lradius 116.003
lwrist 28.1415
lhand -27.0871 -0.578596
lfingers 7.12502
lthumb -0.5042 29.4006
rfemur -24.8651 -4.91249 17.5214
rtibia 113.143
rfoot 8.45598 -5.49418
rtoes 21.6155
lfemur -18.4127 0.335859 -26.1029
ltibia 48.7486
lfoot -24.7843 -0.325067
ltoes -7.90848
118
root 1.32711 17.0098 27.1466 0.705834 3.85435 1.98084
lowerback 18.7364 1.71139 -1.49072
upperback 0.119677 1.87565 -0.617231
thorax -10.4383 0.945098 -0.340193
lowerneck -21.4961 -5.52782 -1.83564
upperneck 6.33959 -7.64384 6.42932
head 5.67569 -3.25091 1.51014
rclavicle -7.36746e-015 3.77691e-015
rhumerus -48.5764 8.00673 -100.678
rradius 102.122
rwrist -13.5296
rhand -11.6637 35.8441
rfingers 7.12502
rthumb 14.381 6.36227
lclavicle -7.36746e-015 3.77691e-015
lhumerus -38.3287 -19.2323 96.0053
lradius 116.296
lwrist 27.5561
lhand -26.4548 -0.466542
lfingers 7.12502
lthumb 0.106518 29.5132
rfemur -29.0909 -4.69978 17.8514
rtibia 113.803
rfoot 7.64675 -4.75204
rtoes 18.3685
lfemur -17.391 0.599162 -25.9369
ltibia 48.6856
lfoot -24.9637 0.526639
ltoes -7.73963
119
root 1.33108 17.0475 27.5756 1.57502 2.37455 1.55728
lowerback 18.443 1.93567 -1.55525
upperback -0.220284 2.18249 -0.418902
thorax -10.6658 1.10045 -0.169315
lowerneck -21.5026 -5.24748 -1.73063
upperneck 6.35401 -7.2789 6.26582
head 5.65546 -3.08426 1.48386
rclavicle 1.09456e-014 -1.31198e-014
rhumerus -50.1032 8.15624 -100.806
rradius 102.754
rwrist -14.7384
rhand -11.3205 36.0944
rfingers 7.12502
rthumb 14.7117 6.63642
lclavicle 1.09456e-014 -1.31198e-014
lhumerus -36.7472 -19.1827 95.5175
lradius 116.922
lwrist 26.7741
lhand -24.5411 -0.239441
lfingers 7.12502
lthumb 1.95477 29.7314
rfemur -33.7813 -3.69864 18.8358
rtibia 113.873
rfoot 7.48704 -4.23413
rtoes 23.0532
lfemur -16.4484 1.34094 -25.5292
ltibia 48.001
lfoot -24.266 1.33343
ltoes -9.18202
120
root 1.34663 17.1222 28.0644 1.94891 1.50347 1.30646
lowerback 18.0695 1.86753 -1.50358
upperback -0.337388 2.12879 -0.246915
thorax -10.5889 1.079 0.0135058
lowerneck -21.6904 -4.90351 -1.70015
upperneck 6.69229 -6.81546 6.00674
head 5.76241 -2.86841 1.44367
rclavicle 4.43538e-014 -2.25621e-014
rhumerus -51.6872 8.5299 -100.984
rradius 103.528
rwrist -15.6701
rhand -11.0701 36.1333
rfingers 7.12502
rthumb 14.953 6.69312
lclavicle 4.43538e-014 -2.25621e-014
lhumerus -35.5469 -18.9077 95.1573
lradius 117.746
lwrist 26.3298
lhand -28.2962 1.58176
lfingers 7.12502
lthumb -1.67199 31.555
rfemur -36.5991 -3.19801 19.4409
rtibia 112.878
rfoot 7.09406 -3.23661
rtoes 17.5923
lfemur -14.4518 1.75589 -25.3928
ltibia 46.8798
lfoot -23.347 2.03046
ltoes -12.7965
121
root 1.39202 17.216 28.6395 1.33913 1.2275 3.25042
lowerback 17.5476 1.68164 -3.17246
upperback 0.104836 1.5133 -0.668215
thorax -9.82649 0.854757 0.687026
lowerneck -21.8907 -4.54361 -1.77057
upperneck 6.97533 -6.31208 5.85566
head 5.86111 -2.6293 1.45941
rclavicle 5.91384e-015 1.11319e-014
rhumerus -52.9857 9.14258 -101.1
rradius 104.283
rwrist -16.5562
rhand -10.8516 36.0331
rfingers 7.12502
rthumb 15.1635 6.60868
lclavicle 5.91384e-015 1.11319e-014
lhumerus -34.5302 -18.3941 94.7807
lradius 118.846
lwrist 26.7793
lhand -28.9068 1.70228
lfingers 7.12502
lthumb -2.2617 31.67
rfemur -36.7394 -3.68262 16.7372
rtibia 111.14
rfoot 5.56446 -1.17729
rtoes 9.17976
lfemur -10.4954 1.66035 -27.8439
ltibia 45.1522
lfoot -22.4232 2.4952
ltoes -14.8825
